<?xml version="1.0" encoding="utf-8"?>
<!-- Generator: Adobe Illustrator 25.0.0, SVG Export Plug-In . SVG Version: 6.00 Build 0)  -->
<svg version="1.1" id="Layer_1" xmlns="http://www.w3.org/2000/svg" xmlns:xlink="http://www.w3.org/1999/xlink" x="0px" y="0px"
	 viewBox="0 0 257 65" enable-background="new 0 0 257 65" xml:space="preserve">
<g>
	<g>
		
			<linearGradient id="SVGID_1_" gradientUnits="userSpaceOnUse" x1="4.429" y1="4905.3462" x2="40.3933" y2="4869.3823" gradientTransform="matrix(0.9999 -0.0115 0.0115 0.9999 -54.5734 -4874.2334)">
			<stop  offset="0" style="stop-color:#3597FF"/>
			<stop  offset="0.583" style="stop-color:#4C53DE"/>
			<stop  offset="0.7279" style="stop-color:#4D4EDA"/>
			<stop  offset="0.9005" style="stop-color:#5140D1"/>
			<stop  offset="1" style="stop-color:#5434CA"/>
		</linearGradient>
		<polygon fill="url(#SVGID_1_)" points="24.7,0.28 0.52,25.03 12.2,36.44 47.69,0.01 		"/>
		
			<linearGradient id="SVGID_2_" gradientUnits="userSpaceOnUse" x1="15.8959" y1="4905.3174" x2="40.3276" y2="4929.749" gradientTransform="matrix(0.9999 -0.0115 0.0115 0.9999 -54.5734 -4874.2334)">
			<stop  offset="0" style="stop-color:#2B55E3"/>
			<stop  offset="0.2691" style="stop-color:#247AFF"/>
			<stop  offset="1" style="stop-color:#46EDFF"/>
		</linearGradient>
		<polygon fill="url(#SVGID_2_)" points="12.16,36.41 25.23,49.18 48.21,48.91 23.5,24.76 		"/>
	</g>
	<g>
		
			<linearGradient id="SVGID_3_" gradientUnits="userSpaceOnUse" x1="472.43" y1="4627.0151" x2="508.3943" y2="4591.0508" gradientTransform="matrix(-0.9999 0.0115 -0.0115 -0.9999 607.0033 4655.3774)">
			<stop  offset="0" style="stop-color:#8127FF"/>
			<stop  offset="0.43" style="stop-color:#BD37FF"/>
			<stop  offset="0.631" style="stop-color:#CD3AFF"/>
			<stop  offset="1" style="stop-color:#F441FF"/>
		</linearGradient>
		<polygon fill="url(#SVGID_3_)" points="62.96,64.57 87.15,39.82 75.47,28.4 39.98,64.83 		"/>
		
			<linearGradient id="SVGID_4_" gradientUnits="userSpaceOnUse" x1="483.8969" y1="4626.9858" x2="508.3286" y2="4651.4175" gradientTransform="matrix(-0.9999 0.0115 -0.0115 -0.9999 607.0033 4655.3774)">
			<stop  offset="0" style="stop-color:#8127FF"/>
			<stop  offset="0.43" style="stop-color:#BD37FF"/>
			<stop  offset="0.631" style="stop-color:#CD3AFF"/>
			<stop  offset="1" style="stop-color:#F441FF"/>
		</linearGradient>
		<polygon fill="url(#SVGID_4_)" points="75.51,28.44 62.44,15.67 39.45,15.94 64.16,40.08 		"/>
	</g>
</g>
<g>
	<g>
		<path fill="#A9BCCD" d="M106.44,34.64c-1.28,0.62-2.95,0.93-5,0.93c-2.69,0-4.8-0.79-6.33-2.37c-1.54-1.58-2.31-3.68-2.31-6.31
			c0-2.8,0.86-5.07,2.59-6.81s3.97-2.61,6.73-2.61c1.71,0,3.15,0.22,4.32,0.65v3.8c-1.17-0.7-2.51-1.05-4-1.05
			c-1.64,0-2.97,0.52-3.98,1.55c-1.01,1.03-1.51,2.43-1.51,4.2c0,1.69,0.48,3.04,1.43,4.05c0.95,1.01,2.23,1.51,3.84,1.51
			c1.54,0,2.95-0.37,4.22-1.12V34.64z"/>
		<path fill="#A9BCCD" d="M117.57,35.57c-2.08,0-3.72-0.58-4.91-1.75s-1.79-2.75-1.79-4.75c0-2.07,0.62-3.68,1.86-4.85
			c1.24-1.17,2.91-1.75,5.02-1.75c2.07,0,3.7,0.58,4.88,1.75c1.18,1.17,1.77,2.71,1.77,4.63c0,2.08-0.61,3.71-1.83,4.92
			C121.35,34.97,119.68,35.57,117.57,35.57z M117.67,25.42c-0.91,0-1.62,0.31-2.12,0.94c-0.5,0.63-0.76,1.51-0.76,2.66
			c0,2.4,0.97,3.6,2.91,3.6c1.85,0,2.77-1.23,2.77-3.7C120.46,26.58,119.53,25.42,117.67,25.42z"/>
		<path fill="#A9BCCD" d="M141.63,35.27h-3.86v-1.72h-0.05c-0.88,1.35-2.17,2.03-3.87,2.03c-1.56,0-2.82-0.55-3.77-1.65
			c-0.95-1.1-1.43-2.64-1.43-4.62c0-2.07,0.53-3.72,1.57-4.97c1.05-1.25,2.43-1.87,4.13-1.87c1.61,0,2.73,0.58,3.37,1.73h0.05v-7.43
			h3.86V35.27z M137.84,29.19v-0.94c0-0.81-0.24-1.49-0.71-2.03c-0.47-0.54-1.09-0.81-1.84-0.81c-0.85,0-1.52,0.34-2,1.01
			c-0.48,0.67-0.72,1.59-0.72,2.76c0,1.1,0.23,1.95,0.7,2.54s1.11,0.89,1.93,0.89c0.78,0,1.42-0.31,1.91-0.94
			S137.84,30.22,137.84,29.19z"/>
		<path fill="#A9BCCD" d="M158.6,30.12h-8.15c0.13,1.81,1.27,2.72,3.43,2.72c1.38,0,2.58-0.33,3.63-0.98v2.78
			c-1.16,0.62-2.66,0.93-4.5,0.93c-2.02,0-3.58-0.56-4.7-1.68c-1.11-1.12-1.67-2.68-1.67-4.68c0-2.08,0.6-3.72,1.81-4.93
			s2.69-1.82,4.44-1.82c1.82,0,3.23,0.54,4.23,1.62s1.5,2.55,1.5,4.41V30.12z M155.03,27.75c0-1.79-0.72-2.69-2.17-2.69
			c-0.62,0-1.15,0.26-1.61,0.77c-0.45,0.51-0.73,1.15-0.82,1.92H155.03z"/>
		<path fill="#A9BCCD" d="M183.72,35.27h-3.89V24.79c0-1.13,0.05-2.38,0.15-3.75h-0.1c-0.2,1.07-0.39,1.85-0.55,2.32l-4.1,11.9H172
			l-4.17-11.78c-0.11-0.32-0.3-1.13-0.55-2.44h-0.11c0.11,1.72,0.16,3.24,0.16,4.54v9.68h-3.55v-17.5h5.77l3.58,10.38
			c0.29,0.83,0.49,1.66,0.62,2.5h0.07c0.22-0.97,0.45-1.81,0.7-2.53l3.58-10.35h5.63V35.27z"/>
		<path fill="#A9BCCD" d="M200.22,35.27h-3.65v-1.79h-0.05c-0.84,1.4-2.08,2.1-3.72,2.1c-1.21,0-2.17-0.34-2.86-1.03
			c-0.7-0.69-1.04-1.61-1.04-2.75c0-2.43,1.44-3.83,4.31-4.2l3.39-0.45c0-1.37-0.74-2.05-2.22-2.05c-1.49,0-2.91,0.44-4.25,1.33
			v-2.91c0.54-0.28,1.27-0.52,2.2-0.73c0.93-0.21,1.78-0.32,2.55-0.32c3.56,0,5.35,1.78,5.35,5.33V35.27z M196.6,30.19v-0.84
			l-2.27,0.29c-1.25,0.16-1.88,0.73-1.88,1.7c0,0.44,0.15,0.8,0.46,1.08c0.3,0.28,0.72,0.42,1.24,0.42c0.72,0,1.31-0.25,1.77-0.75
			C196.37,31.59,196.6,30.95,196.6,30.19z"/>
		<path fill="#A9BCCD" d="M204.96,34.94v-3.12c0.63,0.38,1.27,0.67,1.9,0.86c0.63,0.19,1.23,0.28,1.79,0.28
			c0.68,0,1.22-0.09,1.62-0.28c0.39-0.19,0.59-0.47,0.59-0.86c0-0.24-0.09-0.45-0.27-0.61c-0.18-0.16-0.41-0.31-0.69-0.43
			c-0.28-0.12-0.59-0.23-0.92-0.33c-0.33-0.1-0.66-0.21-0.96-0.33c-0.5-0.19-0.93-0.39-1.31-0.6c-0.38-0.21-0.7-0.47-0.95-0.75
			c-0.26-0.29-0.45-0.62-0.59-0.99c-0.13-0.37-0.2-0.82-0.2-1.33c0-0.7,0.15-1.3,0.46-1.81c0.3-0.5,0.71-0.92,1.22-1.24
			c0.51-0.32,1.09-0.56,1.75-0.71s1.34-0.23,2.04-0.23c0.55,0,1.12,0.04,1.68,0.13c0.57,0.08,1.13,0.21,1.68,0.37v2.98
			c-0.49-0.29-1.01-0.5-1.57-0.64c-0.56-0.14-1.1-0.21-1.64-0.21c-0.25,0-0.49,0.02-0.71,0.07s-0.42,0.11-0.59,0.2
			c-0.17,0.08-0.3,0.2-0.4,0.33c-0.1,0.13-0.15,0.29-0.15,0.46c0,0.23,0.07,0.42,0.22,0.59s0.34,0.3,0.57,0.42
			c0.24,0.12,0.5,0.22,0.79,0.32c0.29,0.09,0.58,0.19,0.86,0.29c0.51,0.18,0.98,0.37,1.39,0.59c0.42,0.21,0.77,0.46,1.07,0.74
			c0.3,0.29,0.53,0.62,0.68,1c0.16,0.38,0.24,0.84,0.24,1.37c0,0.74-0.16,1.37-0.48,1.9c-0.32,0.53-0.75,0.95-1.28,1.28
			c-0.53,0.33-1.15,0.57-1.84,0.72c-0.7,0.15-1.42,0.23-2.17,0.23C207.4,35.57,206.13,35.36,204.96,34.94z"/>
		<path fill="#A9BCCD" d="M226.83,35.12c-0.57,0.3-1.43,0.45-2.58,0.45c-2.72,0-4.08-1.41-4.08-4.24v-5.73h-2.03v-2.84h2.03v-2.7
			l3.84-1.1v3.8h2.81v2.84h-2.81v5.05c0,1.3,0.52,1.95,1.55,1.95c0.41,0,0.83-0.12,1.26-0.35V35.12z"/>
		<path fill="#A9BCCD" d="M242.64,30.12h-8.15c0.13,1.81,1.27,2.72,3.43,2.72c1.38,0,2.58-0.33,3.63-0.98v2.78
			c-1.16,0.62-2.66,0.93-4.5,0.93c-2.02,0-3.58-0.56-4.7-1.68c-1.11-1.12-1.67-2.68-1.67-4.68c0-2.08,0.6-3.72,1.81-4.93
			s2.69-1.82,4.44-1.82c1.82,0,3.23,0.54,4.23,1.62s1.5,2.55,1.5,4.41V30.12z M239.06,27.75c0-1.79-0.72-2.69-2.17-2.69
			c-0.62,0-1.15,0.26-1.61,0.77c-0.45,0.51-0.73,1.15-0.82,1.92H239.06z"/>
		<path fill="#A9BCCD" d="M255.59,26.25c-0.46-0.25-1-0.38-1.62-0.38c-0.84,0-1.49,0.31-1.96,0.92c-0.47,0.61-0.71,1.45-0.71,2.51
			v5.97h-3.86v-12.5h3.86v2.32h0.05c0.61-1.69,1.71-2.54,3.3-2.54c0.41,0,0.72,0.05,0.95,0.15V26.25z"/>
	</g>
	<g>
		<linearGradient id="SVGID_5_" gradientUnits="userSpaceOnUse" x1="92.791" y1="26.167" x2="255.5859" y2="26.167">
			<stop  offset="3.409785e-07" style="stop-color:#46CDFF"/>
			<stop  offset="0.3056" style="stop-color:#247AFF"/>
			<stop  offset="0.5121" style="stop-color:#9B46FF"/>
			<stop  offset="0.7363" style="stop-color:#F441FF"/>
			<stop  offset="0.9955" style="stop-color:#FF95FF"/>
		</linearGradient>
		<path fill="url(#SVGID_5_)" d="M106.44,34.64c-1.28,0.62-2.95,0.93-5,0.93c-2.69,0-4.8-0.79-6.33-2.37
			c-1.54-1.58-2.31-3.68-2.31-6.31c0-2.8,0.86-5.07,2.59-6.81s3.97-2.61,6.73-2.61c1.71,0,3.15,0.22,4.32,0.65v3.8
			c-1.17-0.7-2.51-1.05-4-1.05c-1.64,0-2.97,0.52-3.98,1.55c-1.01,1.03-1.51,2.43-1.51,4.2c0,1.69,0.48,3.04,1.43,4.05
			c0.95,1.01,2.23,1.51,3.84,1.51c1.54,0,2.95-0.37,4.22-1.12V34.64z"/>
		<linearGradient id="SVGID_6_" gradientUnits="userSpaceOnUse" x1="92.791" y1="26.167" x2="255.5859" y2="26.167">
			<stop  offset="3.409785e-07" style="stop-color:#46CDFF"/>
			<stop  offset="0.3056" style="stop-color:#247AFF"/>
			<stop  offset="0.5121" style="stop-color:#9B46FF"/>
			<stop  offset="0.7363" style="stop-color:#F441FF"/>
			<stop  offset="0.9955" style="stop-color:#FF95FF"/>
		</linearGradient>
		<path fill="url(#SVGID_6_)" d="M117.57,35.57c-2.08,0-3.72-0.58-4.91-1.75s-1.79-2.75-1.79-4.75c0-2.07,0.62-3.68,1.86-4.85
			c1.24-1.17,2.91-1.75,5.02-1.75c2.07,0,3.7,0.58,4.88,1.75c1.18,1.17,1.77,2.71,1.77,4.63c0,2.08-0.61,3.71-1.83,4.92
			C121.35,34.97,119.68,35.57,117.57,35.57z M117.67,25.42c-0.91,0-1.62,0.31-2.12,0.94c-0.5,0.63-0.76,1.51-0.76,2.66
			c0,2.4,0.97,3.6,2.91,3.6c1.85,0,2.77-1.23,2.77-3.7C120.46,26.58,119.53,25.42,117.67,25.42z"/>
		<linearGradient id="SVGID_7_" gradientUnits="userSpaceOnUse" x1="92.791" y1="26.167" x2="255.5859" y2="26.167">
			<stop  offset="3.409785e-07" style="stop-color:#46CDFF"/>
			<stop  offset="0.3056" style="stop-color:#247AFF"/>
			<stop  offset="0.5121" style="stop-color:#9B46FF"/>
			<stop  offset="0.7363" style="stop-color:#F441FF"/>
			<stop  offset="0.9955" style="stop-color:#FF95FF"/>
		</linearGradient>
		<path fill="url(#SVGID_7_)" d="M141.63,35.27h-3.86v-1.72h-0.05c-0.88,1.35-2.17,2.03-3.87,2.03c-1.56,0-2.82-0.55-3.77-1.65
			c-0.95-1.1-1.43-2.64-1.43-4.62c0-2.07,0.53-3.72,1.57-4.97c1.05-1.25,2.43-1.87,4.13-1.87c1.61,0,2.73,0.58,3.37,1.73h0.05v-7.43
			h3.86V35.27z M137.84,29.19v-0.94c0-0.81-0.24-1.49-0.71-2.03c-0.47-0.54-1.09-0.81-1.84-0.81c-0.85,0-1.52,0.34-2,1.01
			c-0.48,0.67-0.72,1.59-0.72,2.76c0,1.1,0.23,1.95,0.7,2.54s1.11,0.89,1.93,0.89c0.78,0,1.42-0.31,1.91-0.94
			S137.84,30.22,137.84,29.19z"/>
		<linearGradient id="SVGID_8_" gradientUnits="userSpaceOnUse" x1="92.791" y1="26.167" x2="255.5859" y2="26.167">
			<stop  offset="3.409785e-07" style="stop-color:#46CDFF"/>
			<stop  offset="0.3056" style="stop-color:#247AFF"/>
			<stop  offset="0.5121" style="stop-color:#9B46FF"/>
			<stop  offset="0.7363" style="stop-color:#F441FF"/>
			<stop  offset="0.9955" style="stop-color:#FF95FF"/>
		</linearGradient>
		<path fill="url(#SVGID_8_)" d="M158.6,30.12h-8.15c0.13,1.81,1.27,2.72,3.43,2.72c1.38,0,2.58-0.33,3.63-0.98v2.78
			c-1.16,0.62-2.66,0.93-4.5,0.93c-2.02,0-3.58-0.56-4.7-1.68c-1.11-1.12-1.67-2.68-1.67-4.68c0-2.08,0.6-3.72,1.81-4.93
			s2.69-1.82,4.44-1.82c1.82,0,3.23,0.54,4.23,1.62s1.5,2.55,1.5,4.41V30.12z M155.03,27.75c0-1.79-0.72-2.69-2.17-2.69
			c-0.62,0-1.15,0.26-1.61,0.77c-0.45,0.51-0.73,1.15-0.82,1.92H155.03z"/>
		<linearGradient id="SVGID_9_" gradientUnits="userSpaceOnUse" x1="92.791" y1="26.167" x2="255.5859" y2="26.167">
			<stop  offset="3.409785e-07" style="stop-color:#46CDFF"/>
			<stop  offset="0.3056" style="stop-color:#247AFF"/>
			<stop  offset="0.5121" style="stop-color:#9B46FF"/>
			<stop  offset="0.7363" style="stop-color:#F441FF"/>
			<stop  offset="0.9955" style="stop-color:#FF95FF"/>
		</linearGradient>
		<path fill="url(#SVGID_9_)" d="M183.72,35.27h-3.89V24.79c0-1.13,0.05-2.38,0.15-3.75h-0.1c-0.2,1.07-0.39,1.85-0.55,2.32
			l-4.1,11.9H172l-4.17-11.78c-0.11-0.32-0.3-1.13-0.55-2.44h-0.11c0.11,1.72,0.16,3.24,0.16,4.54v9.68h-3.55v-17.5h5.77l3.58,10.38
			c0.29,0.83,0.49,1.66,0.62,2.5h0.07c0.22-0.97,0.45-1.81,0.7-2.53l3.58-10.35h5.63V35.27z"/>
		<linearGradient id="SVGID_10_" gradientUnits="userSpaceOnUse" x1="92.791" y1="26.167" x2="255.5859" y2="26.167">
			<stop  offset="3.409785e-07" style="stop-color:#46CDFF"/>
			<stop  offset="0.3056" style="stop-color:#247AFF"/>
			<stop  offset="0.5121" style="stop-color:#9B46FF"/>
			<stop  offset="0.7363" style="stop-color:#F441FF"/>
			<stop  offset="0.9955" style="stop-color:#FF95FF"/>
		</linearGradient>
		<path fill="url(#SVGID_10_)" d="M200.22,35.27h-3.65v-1.79h-0.05c-0.84,1.4-2.08,2.1-3.72,2.1c-1.21,0-2.17-0.34-2.86-1.03
			c-0.7-0.69-1.04-1.61-1.04-2.75c0-2.43,1.44-3.83,4.31-4.2l3.39-0.45c0-1.37-0.74-2.05-2.22-2.05c-1.49,0-2.91,0.44-4.25,1.33
			v-2.91c0.54-0.28,1.27-0.52,2.2-0.73c0.93-0.21,1.78-0.32,2.55-0.32c3.56,0,5.35,1.78,5.35,5.33V35.27z M196.6,30.19v-0.84
			l-2.27,0.29c-1.25,0.16-1.88,0.73-1.88,1.7c0,0.44,0.15,0.8,0.46,1.08c0.3,0.28,0.72,0.42,1.24,0.42c0.72,0,1.31-0.25,1.77-0.75
			C196.37,31.59,196.6,30.95,196.6,30.19z"/>
		<linearGradient id="SVGID_11_" gradientUnits="userSpaceOnUse" x1="92.791" y1="26.167" x2="255.5859" y2="26.167">
			<stop  offset="3.409785e-07" style="stop-color:#46CDFF"/>
			<stop  offset="0.3056" style="stop-color:#247AFF"/>
			<stop  offset="0.5121" style="stop-color:#9B46FF"/>
			<stop  offset="0.7363" style="stop-color:#F441FF"/>
			<stop  offset="0.9955" style="stop-color:#FF95FF"/>
		</linearGradient>
		<path fill="url(#SVGID_11_)" d="M204.96,34.94v-3.12c0.63,0.38,1.27,0.67,1.9,0.86c0.63,0.19,1.23,0.28,1.79,0.28
			c0.68,0,1.22-0.09,1.62-0.28c0.39-0.19,0.59-0.47,0.59-0.86c0-0.24-0.09-0.45-0.27-0.61c-0.18-0.16-0.41-0.31-0.69-0.43
			c-0.28-0.12-0.59-0.23-0.92-0.33c-0.33-0.1-0.66-0.21-0.96-0.33c-0.5-0.19-0.93-0.39-1.31-0.6c-0.38-0.21-0.7-0.47-0.95-0.75
			c-0.26-0.29-0.45-0.62-0.59-0.99c-0.13-0.37-0.2-0.82-0.2-1.33c0-0.7,0.15-1.3,0.46-1.81c0.3-0.5,0.71-0.92,1.22-1.24
			c0.51-0.32,1.09-0.56,1.75-0.71s1.34-0.23,2.04-0.23c0.55,0,1.12,0.04,1.68,0.13c0.57,0.08,1.13,0.21,1.68,0.37v2.98
			c-0.49-0.29-1.01-0.5-1.57-0.64c-0.56-0.14-1.1-0.21-1.64-0.21c-0.25,0-0.49,0.02-0.71,0.07s-0.42,0.11-0.59,0.2
			c-0.17,0.08-0.3,0.2-0.4,0.33c-0.1,0.13-0.15,0.29-0.15,0.46c0,0.23,0.07,0.42,0.22,0.59s0.34,0.3,0.57,0.42
			c0.24,0.12,0.5,0.22,0.79,0.32c0.29,0.09,0.58,0.19,0.86,0.29c0.51,0.18,0.98,0.37,1.39,0.59c0.42,0.21,0.77,0.46,1.07,0.74
			c0.3,0.29,0.53,0.62,0.68,1c0.16,0.38,0.24,0.84,0.24,1.37c0,0.74-0.16,1.37-0.48,1.9c-0.32,0.53-0.75,0.95-1.28,1.28
			c-0.53,0.33-1.15,0.57-1.84,0.72c-0.7,0.15-1.42,0.23-2.17,0.23C207.4,35.57,206.13,35.36,204.96,34.94z"/>
		<linearGradient id="SVGID_12_" gradientUnits="userSpaceOnUse" x1="92.791" y1="26.167" x2="255.5859" y2="26.167">
			<stop  offset="3.409785e-07" style="stop-color:#46CDFF"/>
			<stop  offset="0.3056" style="stop-color:#247AFF"/>
			<stop  offset="0.5121" style="stop-color:#9B46FF"/>
			<stop  offset="0.7363" style="stop-color:#F441FF"/>
			<stop  offset="0.9955" style="stop-color:#FF95FF"/>
		</linearGradient>
		<path fill="url(#SVGID_12_)" d="M226.83,35.12c-0.57,0.3-1.43,0.45-2.58,0.45c-2.72,0-4.08-1.41-4.08-4.24v-5.73h-2.03v-2.84h2.03
			v-2.7l3.84-1.1v3.8h2.81v2.84h-2.81v5.05c0,1.3,0.52,1.95,1.55,1.95c0.41,0,0.83-0.12,1.26-0.35V35.12z"/>
		<linearGradient id="SVGID_13_" gradientUnits="userSpaceOnUse" x1="92.791" y1="26.167" x2="255.5859" y2="26.167">
			<stop  offset="3.409785e-07" style="stop-color:#46CDFF"/>
			<stop  offset="0.3056" style="stop-color:#247AFF"/>
			<stop  offset="0.5121" style="stop-color:#9B46FF"/>
			<stop  offset="0.7363" style="stop-color:#F441FF"/>
			<stop  offset="0.9955" style="stop-color:#FF95FF"/>
		</linearGradient>
		<path fill="url(#SVGID_13_)" d="M242.64,30.12h-8.15c0.13,1.81,1.27,2.72,3.43,2.72c1.38,0,2.58-0.33,3.63-0.98v2.78
			c-1.16,0.62-2.66,0.93-4.5,0.93c-2.02,0-3.58-0.56-4.7-1.68c-1.11-1.12-1.67-2.68-1.67-4.68c0-2.08,0.6-3.72,1.81-4.93
			s2.69-1.82,4.44-1.82c1.82,0,3.23,0.54,4.23,1.62s1.5,2.55,1.5,4.41V30.12z M239.06,27.75c0-1.79-0.72-2.69-2.17-2.69
			c-0.62,0-1.15,0.26-1.61,0.77c-0.45,0.51-0.73,1.15-0.82,1.92H239.06z"/>
		<linearGradient id="SVGID_14_" gradientUnits="userSpaceOnUse" x1="92.791" y1="26.167" x2="255.5859" y2="26.167">
			<stop  offset="3.409785e-07" style="stop-color:#46CDFF"/>
			<stop  offset="0.3056" style="stop-color:#247AFF"/>
			<stop  offset="0.5121" style="stop-color:#9B46FF"/>
			<stop  offset="0.7363" style="stop-color:#F441FF"/>
			<stop  offset="0.9955" style="stop-color:#FF95FF"/>
		</linearGradient>
		<path fill="url(#SVGID_14_)" d="M255.59,26.25c-0.46-0.25-1-0.38-1.62-0.38c-0.84,0-1.49,0.31-1.96,0.92
			c-0.47,0.61-0.71,1.45-0.71,2.51v5.97h-3.86v-12.5h3.86v2.32h0.05c0.61-1.69,1.71-2.54,3.3-2.54c0.41,0,0.72,0.05,0.95,0.15V26.25
			z"/>
	</g>
</g>
<g>
	<g>
		<path fill="#F5AFFB" d="M97.43,41.89v7.61l0.41,0.02c0.19,0,0.48-0.01,0.88-0.04s0.68-0.04,0.88-0.04c0.21,0,0.43-0.01,0.64-0.04
			s0.38-0.05,0.51-0.06c-0.02,0.07-0.03,0.12-0.04,0.18s-0.01,0.11-0.01,0.19c0,0.09,0.01,0.17,0.02,0.23s0.02,0.1,0.02,0.13h-4.37
			v-8.19c0.08,0.02,0.16,0.03,0.24,0.04s0.18,0.01,0.29,0.01c0.14,0,0.25-0.01,0.33-0.02S97.38,41.89,97.43,41.89z"/>
		<path fill="#F5AFFB" d="M106.29,46.31v2.78l-0.02,0.17c0,0.16,0.02,0.28,0.06,0.35s0.12,0.11,0.25,0.11l0.38-0.08v0.26
			c-0.1,0.06-0.22,0.1-0.36,0.12l-0.43,0.05c-0.23,0-0.42-0.06-0.56-0.17s-0.23-0.3-0.26-0.58l-0.09,0.12
			c-0.52,0.51-1.11,0.77-1.78,0.77c-0.45,0-0.82-0.14-1.14-0.42s-0.47-0.63-0.47-1.07c0-0.47,0.14-0.84,0.41-1.1
			s0.88-0.47,1.82-0.63c0.41-0.07,0.67-0.12,0.8-0.16c0.31-0.11,0.47-0.32,0.47-0.63c0-0.45-0.12-0.8-0.36-1.05
			s-0.59-0.37-1.06-0.37c-0.39,0-0.73,0.1-1.01,0.31c-0.22,0.16-0.36,0.34-0.4,0.53h-0.15v-0.67c0.31-0.22,0.62-0.39,0.94-0.5
			s0.65-0.17,1.01-0.17C105.64,44.29,106.29,44.96,106.29,46.31z M105.36,43.69h-0.41l-1.89-1.17c-0.1-0.09-0.19-0.18-0.29-0.26
			c-0.02-0.03-0.02-0.1-0.02-0.19v-0.15c0.05-0.16,0.19-0.24,0.4-0.24h0.1c0.05,0.03,0.09,0.05,0.14,0.08
			c0.08,0.05,0.17,0.13,0.25,0.22s0.16,0.16,0.2,0.21L105.36,43.69z M105.33,48.88v-1.75l-0.43,0.07c-0.71,0.14-1.15,0.26-1.32,0.34
			c-0.48,0.21-0.72,0.56-0.72,1.03c0,0.38,0.1,0.66,0.3,0.84s0.49,0.28,0.87,0.28c0.17,0,0.34-0.04,0.52-0.13s0.32-0.19,0.43-0.32
			c0.07-0.05,0.14-0.12,0.22-0.2S105.33,48.91,105.33,48.88z"/>
		<path fill="#F5AFFB" d="M108.2,50.12v-5.76c0.12,0.02,0.21,0.03,0.25,0.04s0.12,0.01,0.23,0.01l0.48-0.05v1.03
			c0.21-0.36,0.44-0.63,0.71-0.8c0.3-0.2,0.66-0.3,1.07-0.3c0.39,0,0.75,0.11,1.07,0.32s0.55,0.51,0.68,0.88
			c0.24-0.4,0.51-0.7,0.81-0.9s0.65-0.3,1.06-0.3c0.71,0,1.22,0.2,1.53,0.61c0.28,0.37,0.42,0.95,0.42,1.74v3.48l-0.48-0.05
			c-0.09,0-0.15,0-0.2,0.01s-0.14,0.02-0.28,0.04v-3.22c0-0.63-0.08-1.09-0.23-1.39c-0.21-0.4-0.58-0.6-1.11-0.6
			s-0.91,0.22-1.13,0.65c-0.16,0.31-0.23,0.74-0.23,1.29v3.26l-0.48-0.05c-0.09,0-0.16,0-0.21,0.01s-0.14,0.02-0.28,0.04V46.6
			c0-1.12-0.42-1.68-1.27-1.68c-0.57,0-0.97,0.17-1.19,0.52c-0.17,0.26-0.25,0.65-0.25,1.19v3.5l-0.48-0.05
			c-0.09,0-0.16,0-0.21,0.01S108.34,50.1,108.2,50.12z"/>
		<path fill="#F5AFFB" d="M126.39,44.8l-0.26,0.79h-0.09c-0.01-0.01-0.05-0.06-0.12-0.16s-0.14-0.18-0.22-0.25
			c-0.13-0.15-0.3-0.27-0.52-0.35s-0.44-0.13-0.66-0.13c-0.65,0-1.17,0.25-1.55,0.76c-0.34,0.46-0.52,1.03-0.52,1.71
			c0,0.78,0.2,1.41,0.59,1.89s0.93,0.73,1.59,0.73c0.34,0,0.64-0.07,0.9-0.21c0.2-0.11,0.45-0.29,0.76-0.56l0.07,0.02l-0.07,0.55
			c-0.27,0.21-0.55,0.36-0.86,0.47s-0.63,0.16-0.97,0.16c-0.98,0-1.74-0.29-2.29-0.87c-0.52-0.54-0.78-1.25-0.78-2.13
			c0-0.91,0.29-1.63,0.86-2.15s1.32-0.78,2.24-0.78c0.38,0,0.71,0.04,1,0.11S126.09,44.61,126.39,44.8z"/>
		<path fill="#F5AFFB" d="M127.85,50.12V41.1l0.48,0.02l0.48-0.02v4.37c0.21-0.38,0.47-0.67,0.8-0.87s0.7-0.3,1.12-0.3
			c0.68,0,1.17,0.2,1.48,0.59s0.46,0.98,0.46,1.76v3.48l-0.48-0.05c-0.09,0-0.15,0-0.2,0.01s-0.14,0.02-0.28,0.04v-3.22
			c0-0.7-0.09-1.19-0.28-1.49c-0.21-0.34-0.56-0.5-1.07-0.5c-0.54,0-0.93,0.16-1.18,0.48s-0.38,0.8-0.38,1.44v3.29l-0.48-0.05
			c-0.09,0-0.16,0-0.21,0.01S127.99,50.1,127.85,50.12z"/>
		<path fill="#F5AFFB" d="M139.03,44.36v5.76l-0.48-0.05c-0.09,0-0.15,0-0.2,0.01s-0.14,0.02-0.27,0.04v-1.05
			c-0.4,0.77-1.04,1.15-1.92,1.15c-0.66,0-1.16-0.19-1.48-0.56s-0.49-0.96-0.49-1.77v-3.53c0.12,0.02,0.21,0.03,0.25,0.04
			s0.12,0.01,0.23,0.01l0.48-0.05v3.24c0,0.67,0.11,1.18,0.32,1.51s0.59,0.5,1.12,0.5c0.55,0,0.95-0.21,1.2-0.64
			c0.2-0.33,0.29-0.76,0.29-1.3v-3.31c0.12,0.02,0.2,0.03,0.25,0.04s0.12,0.01,0.23,0.01L139.03,44.36z M136.39,43.76v-0.13
			c0-0.07,0.01-0.16,0.03-0.25s0.04-0.17,0.06-0.21l0.48-0.63l0.11-0.23c0.04-0.12,0.07-0.25,0.09-0.38c0-0.29-0.19-0.45-0.58-0.5
			c-0.21,0.04-0.35,0.11-0.43,0.22c0.05,0.1,0.08,0.19,0.09,0.29c0,0.12-0.03,0.22-0.1,0.31s-0.17,0.13-0.31,0.15
			c-0.12,0-0.22-0.05-0.32-0.14s-0.14-0.2-0.14-0.32l0.12-0.32c0.02-0.06,0.07-0.12,0.15-0.18c0.06-0.08,0.19-0.15,0.38-0.23
			s0.38-0.11,0.57-0.11c0.14,0,0.25,0.01,0.3,0.02s0.16,0.04,0.32,0.1s0.27,0.13,0.34,0.22c0.19,0.2,0.29,0.43,0.29,0.7
			c0,0.1-0.04,0.22-0.13,0.35s-0.19,0.29-0.33,0.46l-0.3,0.23l-0.23,0.16c-0.06,0.06-0.1,0.11-0.11,0.16s-0.02,0.07-0.03,0.1
			l-0.01,0.19H136.39z"/>
		<path fill="#F5AFFB" d="M144.05,50.12v-5.76c0.12,0.02,0.21,0.03,0.25,0.04s0.12,0.01,0.23,0.01l0.48-0.05v1.03
			c0.21-0.36,0.44-0.63,0.71-0.8c0.3-0.2,0.66-0.3,1.07-0.3c0.39,0,0.75,0.11,1.07,0.32s0.55,0.51,0.68,0.88
			c0.24-0.4,0.51-0.7,0.81-0.9s0.65-0.3,1.06-0.3c0.71,0,1.22,0.2,1.53,0.61c0.28,0.37,0.42,0.95,0.42,1.74v3.48l-0.48-0.05
			c-0.09,0-0.15,0-0.2,0.01s-0.14,0.02-0.28,0.04v-3.22c0-0.63-0.08-1.09-0.23-1.39c-0.21-0.4-0.58-0.6-1.11-0.6
			s-0.91,0.22-1.13,0.65c-0.16,0.31-0.23,0.74-0.23,1.29v3.26l-0.48-0.05c-0.09,0-0.16,0-0.21,0.01s-0.14,0.02-0.28,0.04V46.6
			c0-1.12-0.42-1.68-1.27-1.68c-0.57,0-0.97,0.17-1.19,0.52c-0.17,0.26-0.25,0.65-0.25,1.19v3.5l-0.48-0.05
			c-0.09,0-0.16,0-0.21,0.01S144.18,50.1,144.05,50.12z"/>
		<path fill="#F5AFFB" d="M158.25,46.31v2.78l-0.02,0.17c0,0.16,0.02,0.28,0.06,0.35s0.12,0.11,0.25,0.11l0.38-0.08v0.26
			c-0.1,0.06-0.22,0.1-0.36,0.12l-0.43,0.05c-0.23,0-0.42-0.06-0.56-0.17s-0.23-0.3-0.26-0.58l-0.09,0.12
			c-0.52,0.51-1.11,0.77-1.78,0.77c-0.45,0-0.82-0.14-1.14-0.42s-0.47-0.63-0.47-1.07c0-0.47,0.14-0.84,0.41-1.1
			s0.88-0.47,1.82-0.63c0.41-0.07,0.67-0.12,0.8-0.16c0.31-0.11,0.47-0.32,0.47-0.63c0-0.45-0.12-0.8-0.36-1.05
			s-0.59-0.37-1.06-0.37c-0.39,0-0.73,0.1-1.01,0.31c-0.22,0.16-0.36,0.34-0.4,0.53h-0.15v-0.67c0.31-0.22,0.62-0.39,0.94-0.5
			s0.65-0.17,1.01-0.17C157.61,44.29,158.25,44.96,158.25,46.31z M154.93,43.38h-0.31c0.07-0.32,0.2-0.59,0.41-0.81
			s0.45-0.33,0.72-0.33c0.12,0,0.21,0.01,0.26,0.02l0.5,0.26c0.14,0.08,0.27,0.14,0.4,0.19c0.04,0.01,0.08,0.02,0.14,0.04
			s0.1,0.03,0.12,0.03c0.07,0,0.15-0.02,0.22-0.06s0.13-0.09,0.17-0.15s0.08-0.13,0.12-0.21s0.07-0.15,0.1-0.2h0.29
			c-0.06,0.34-0.19,0.62-0.38,0.84c-0.21,0.25-0.46,0.38-0.76,0.38c-0.12,0-0.2-0.01-0.25-0.02s-0.22-0.1-0.51-0.24
			c-0.15-0.08-0.26-0.13-0.33-0.17c-0.14-0.06-0.25-0.09-0.33-0.09l-0.24,0.05c-0.08,0.03-0.15,0.09-0.21,0.19
			S154.95,43.28,154.93,43.38z M157.29,48.88v-1.75l-0.43,0.07c-0.71,0.14-1.15,0.26-1.32,0.34c-0.48,0.21-0.72,0.56-0.72,1.03
			c0,0.38,0.1,0.66,0.3,0.84s0.49,0.28,0.87,0.28c0.17,0,0.34-0.04,0.52-0.13s0.32-0.19,0.43-0.32c0.07-0.05,0.14-0.12,0.22-0.2
			S157.29,48.91,157.29,48.88z"/>
		<path fill="#F5AFFB" d="M163.69,50.12v-5.76c0.12,0.02,0.21,0.03,0.25,0.04s0.12,0.01,0.23,0.01l0.48-0.05v1.11
			c0.21-0.38,0.47-0.67,0.8-0.87s0.7-0.3,1.12-0.3c0.69,0,1.18,0.19,1.49,0.57s0.45,0.97,0.45,1.78v3.48l-0.48-0.05
			c-0.09,0-0.15,0-0.2,0.01s-0.14,0.02-0.28,0.04v-3.22c0-0.64-0.08-1.11-0.24-1.4c-0.21-0.39-0.57-0.59-1.1-0.59
			c-0.59,0-1.01,0.22-1.25,0.65c-0.21,0.37-0.31,0.95-0.31,1.75v2.81l-0.48-0.05c-0.09,0-0.16,0-0.21,0.01S163.83,50.1,163.69,50.12
			z"/>
		<path fill="#F5AFFB" d="M175.12,44.34v0.46l-1.32-0.12c0.27,0.2,0.47,0.44,0.62,0.7s0.22,0.56,0.22,0.89
			c0,0.62-0.25,1.1-0.76,1.42c-0.46,0.3-1.06,0.45-1.82,0.45h-0.22c-0.17,0-0.3,0.03-0.4,0.1c-0.16,0.09-0.24,0.25-0.24,0.48
			c0,0.24,0.09,0.39,0.26,0.47s0.47,0.11,0.89,0.11h0.77c1.39,0,2.09,0.54,2.09,1.61c0,0.7-0.28,1.26-0.85,1.7s-1.3,0.66-2.2,0.66
			c-0.57,0-1.06-0.14-1.46-0.41c-0.48-0.32-0.72-0.77-0.72-1.34c0-0.42,0.11-0.75,0.33-0.99s0.53-0.4,0.92-0.48v-0.1
			c-0.21-0.05-0.37-0.13-0.48-0.24c-0.16-0.17-0.24-0.42-0.24-0.74c0-0.26,0.08-0.48,0.23-0.64c0.11-0.12,0.31-0.25,0.59-0.39
			c-0.38-0.18-0.66-0.39-0.84-0.63c-0.21-0.29-0.31-0.64-0.31-1.07c0-0.59,0.17-1.05,0.52-1.38c0.38-0.36,0.96-0.54,1.74-0.54h0.16
			l1.66,0.07l0.33,0.02c0.09,0,0.19-0.01,0.29-0.02S175.06,44.35,175.12,44.34z M172.57,50.01c-1.23,0-1.85,0.48-1.85,1.44
			c0,0.47,0.16,0.83,0.47,1.08s0.73,0.37,1.26,0.37c0.51,0,0.94-0.11,1.27-0.33c0.41-0.27,0.62-0.67,0.62-1.2
			c0-0.56-0.18-0.94-0.54-1.14C173.56,50.07,173.15,50.01,172.57,50.01z M171.08,46.19l-0.02,0.12c0,0.41,0.12,0.77,0.36,1.07
			s0.56,0.45,0.96,0.45c0.42,0,0.75-0.15,0.99-0.45s0.35-0.67,0.35-1.11c0-0.5-0.1-0.89-0.29-1.17c-0.21-0.31-0.55-0.47-1.01-0.47
			c-0.43,0-0.76,0.14-0.99,0.43S171.08,45.72,171.08,46.19z"/>
		<path fill="#F5AFFB" d="M180.9,44.36v5.76l-0.48-0.05c-0.09,0-0.15,0-0.2,0.01s-0.14,0.02-0.27,0.04v-1.05
			c-0.4,0.77-1.04,1.15-1.92,1.15c-0.66,0-1.16-0.19-1.48-0.56s-0.49-0.96-0.49-1.77v-3.53c0.12,0.02,0.21,0.03,0.25,0.04
			s0.12,0.01,0.23,0.01l0.48-0.05v3.24c0,0.67,0.11,1.18,0.32,1.51s0.59,0.5,1.12,0.5c0.55,0,0.95-0.21,1.2-0.64
			c0.2-0.33,0.29-0.76,0.29-1.3v-3.31c0.12,0.02,0.2,0.03,0.25,0.04s0.12,0.01,0.23,0.01L180.9,44.36z"/>
		<path fill="#F5AFFB" d="M181.98,47.19c0-0.86,0.26-1.55,0.77-2.09s1.17-0.81,1.96-0.81c0.75,0,1.36,0.27,1.83,0.8
			s0.69,1.24,0.69,2.13c0,0.82-0.23,1.52-0.69,2.07c-0.5,0.62-1.18,0.93-2.03,0.93c-0.72,0-1.32-0.25-1.8-0.74
			c-0.51-0.53-0.77-1.2-0.77-2.02L181.98,47.19z M183.19,43.81h-0.41l1.49-2.02h0.65l1.49,2.02H186l-1.39-1.27L183.19,43.81z
			 M184.69,44.67c-0.62,0-1.08,0.29-1.39,0.87c-0.25,0.47-0.38,1.08-0.38,1.82c0,0.68,0.13,1.24,0.38,1.68
			c0.3,0.53,0.75,0.79,1.32,0.79c0.56,0,0.99-0.32,1.29-0.97c0.24-0.51,0.36-1.08,0.36-1.69c0-0.66-0.11-1.2-0.32-1.64
			C185.67,44.96,185.25,44.67,184.69,44.67z M186.85,41.82h-0.41l-1.89-1.18c-0.1-0.09-0.2-0.17-0.29-0.26
			c-0.02-0.03-0.02-0.1-0.02-0.19v-0.14c0.06-0.16,0.2-0.24,0.41-0.24h0.09c0.05,0.02,0.1,0.05,0.15,0.07
			c0.08,0.06,0.16,0.13,0.25,0.23s0.16,0.16,0.21,0.21L186.85,41.82z"/>
		<path fill="#F5AFFB" d="M188.55,50.12v-5.76c0.12,0.02,0.21,0.03,0.25,0.04s0.12,0.01,0.23,0.01l0.48-0.05v1.11
			c0.21-0.38,0.47-0.67,0.8-0.87s0.7-0.3,1.12-0.3c0.69,0,1.18,0.19,1.49,0.57s0.45,0.97,0.45,1.78v3.48l-0.48-0.05
			c-0.09,0-0.15,0-0.2,0.01s-0.14,0.02-0.28,0.04v-3.22c0-0.64-0.08-1.11-0.24-1.4c-0.21-0.39-0.57-0.59-1.1-0.59
			c-0.59,0-1.01,0.22-1.25,0.65c-0.21,0.37-0.31,0.95-0.31,1.75v2.81l-0.48-0.05c-0.09,0-0.16,0-0.21,0.01S188.69,50.1,188.55,50.12
			z"/>
	</g>
</g>
</svg>
